<svg xmlns="http://www.w3.org/2000/svg" viewBox="0 0 19.6 15.78"><defs><style>.cls-1{fill:#223654;stroke:#223654;stroke-miterlimit:10;stroke-width:0.5px;}</style></defs><title>Fichier 1</title><g id="Calque_2" data-name="Calque 2"><g id="Layer_1_-_copie" data-name="Layer 1 - copie"><path class="cls-1" d="M17,9.32a.44.44,0,0,0,.34-.14l1.91-1.91a.47.47,0,0,0-.67-.67l-1.1,1.1A7.64,7.64,0,0,0,3.08,4.25a.49.49,0,0,0,.19.65.48.48,0,0,0,.65-.2A6.69,6.69,0,0,1,16.49,7.89v1a.48.48,0,0,0,.29.44.57.57,0,0,0,.18,0Z"/><path class="cls-1" d="M9.8,15.53a7.63,7.63,0,0,0,6.76-4.07.48.48,0,1,0-.84-.45A6.69,6.69,0,0,1,3.12,7.89V6.94a.49.49,0,0,0-.3-.45.48.48,0,0,0-.52.11L.39,8.51a.47.47,0,0,0,0,.67.46.46,0,0,0,.67,0l1.1-1.09A7.65,7.65,0,0,0,9.8,15.53Z"/><path class="cls-1" d="M13.48,10.9l-2.3-2.31a2.78,2.78,0,0,0,.53-1.65A2.87,2.87,0,1,0,8.85,9.8a2.9,2.9,0,0,0,1.66-.53l2.3,2.3a.48.48,0,0,0,.34.14.47.47,0,0,0,.33-.14.46.46,0,0,0,0-.67Zm-6.54-4A1.91,1.91,0,1,1,8.85,8.85,1.9,1.9,0,0,1,6.94,6.94Z"/></g></g></svg>