<svg xmlns="http://www.w3.org/2000/svg" width="13.999" height="13.999" viewBox="0 0 13.999 13.999"><defs><style>.a{fill:#fff;}</style></defs><path class="a" d="M-1978.244,13.616-1983,8.861l-4.758,4.758a1.313,1.313,0,0,1-.926.38,1.311,1.311,0,0,1-.929-.382,1.319,1.319,0,0,1,0-1.863L-1984.861,7l-4.754-4.754a1.3,1.3,0,0,1-.385-.926,1.309,1.309,0,0,1,.384-.933,1.309,1.309,0,0,1,.931-.386,1.3,1.3,0,0,1,.931.387L-1983,5.139l4.753-4.754a1.31,1.31,0,0,1,.931-.385,1.3,1.3,0,0,1,.932.386,1.3,1.3,0,0,1,.384.933,1.3,1.3,0,0,1-.386.927L-1981.139,7l4.755,4.755a1.318,1.318,0,0,1,0,1.859l-.006.006a1.311,1.311,0,0,1-.926.38A1.309,1.309,0,0,1-1978.244,13.616Z" transform="translate(1990)"/></svg>